<svg width="62" height="62" viewBox="0 0 62 62" fill="none" xmlns="http://www.w3.org/2000/svg">
<path d="M48.3296 17.4371L49.6676 18.4059C51.9944 20.2827 53.3324 22.4018 53.6233 24.8236C56.1246 24.3392 59.3241 24.7025 60.7202 25.6712L62 26.4583L61.7673 26.9426C61.3601 27.8508 61.2438 28.093 61.1856 28.2141C58.9169 32.7549 54.4377 32.8154 52.3435 32.7549C47.0498 46.0141 35.7645 53.34 20.5235 53.34C13.4847 53.34 8.13287 51.0999 4.52622 46.6801C-0.243876 40.8678 -0.243876 33.2998 0.163327 30.878L0.279671 30.3937H42.3379C44.5484 30.3937 46.2354 29.7882 47.0498 29.3039C46.1773 27.9719 45.8864 26.4583 45.8282 25.6106C45.6537 23.1889 46.2354 20.646 47.3989 18.8297L48.3296 17.4371ZM11.216 23.1283V29.1828H4.81707V23.1283H11.216ZM18.7783 23.1283V29.1828H12.3794V23.1283H18.7783ZM26.3407 23.1283V29.1828H19.9418V23.1283H26.3407ZM33.903 23.1283V29.1828H27.5041V23.1283H33.903ZM41.4653 23.1283V29.1828H35.0664V23.1283H41.4653ZM33.903 15.863V21.9174H27.5041V15.863H33.903ZM26.3407 15.863V21.9174H19.9418V15.863H26.3407ZM18.7783 15.863V21.9174H12.3794V15.863H18.7783ZM33.903 8.59766V14.6521H27.5041V8.59766H33.903Z" fill="#2396ED"/>
</svg>
