<svg width="62" height="62" viewBox="0 0 62 62" fill="none" xmlns="http://www.w3.org/2000/svg">
<g clip-path="url(#clip0_102_1483)">
<path d="M20.7474 62C26.4514 62 31.0807 57.3707 31.0807 51.6667V41.3333H20.7474C15.0434 41.3333 10.4141 45.9627 10.4141 51.6667C10.4141 57.3707 15.0434 62 20.7474 62Z" fill="#0ACF83"/>
<path d="M10.4141 31C10.4141 25.296 15.0434 20.6667 20.7474 20.6667H31.0807V41.3333H20.7474C15.0434 41.3333 10.4141 36.704 10.4141 31Z" fill="#A259FF"/>
<path d="M10.4141 10.3333C10.4141 4.62933 15.0434 0 20.7474 0H31.0807V20.6667H20.7474C15.0434 20.6667 10.4141 16.0373 10.4141 10.3333Z" fill="#F24E1E"/>
<path d="M31.0807 0H41.4141C47.1181 0 51.7474 4.62933 51.7474 10.3333C51.7474 16.0373 47.1181 20.6667 41.4141 20.6667H31.0807V0Z" fill="#FF7262"/>
<path d="M51.7474 31C51.7474 36.704 47.1181 41.3333 41.4141 41.3333C35.7101 41.3333 31.0807 36.704 31.0807 31C31.0807 25.296 35.7101 20.6667 41.4141 20.6667C47.1181 20.6667 51.7474 25.296 51.7474 31Z" fill="#1ABCFE"/>
</g>
<defs>
<clipPath id="clip0_102_1483">
<rect width="62" height="62" fill="white"/>
</clipPath>
</defs>
</svg>
