<svg width="62" height="62" viewBox="0 0 62 62" fill="none" xmlns="http://www.w3.org/2000/svg">
<path fill-rule="evenodd" clip-rule="evenodd" d="M36.2775 7.10509L49.0261 14.4657C49.3851 14.0855 49.8044 13.7497 50.2801 13.4734C52.9241 11.9535 56.2965 12.856 57.8322 15.5C59.3521 18.144 58.4497 21.5163 55.8057 23.0521C55.3336 23.3234 54.8378 23.5176 54.3332 23.6384V38.3654C54.8324 38.4865 55.3227 38.6794 55.7898 38.9479C58.4497 40.4837 59.3521 43.856 57.8164 46.5C56.2965 49.144 52.9083 50.0465 50.2643 48.5266C49.7379 48.224 49.2805 47.8473 48.8976 47.4172L36.2267 54.733C36.4078 55.2803 36.5059 55.8657 36.5059 56.4745C36.5059 59.5143 34.036 62 30.9803 62C27.9246 62 25.4548 59.5301 25.4548 56.4745C25.4548 55.9313 25.5328 55.4067 25.6783 54.9111L12.9331 47.5524C12.578 47.9252 12.1644 48.2547 11.6964 48.5266C9.0365 50.0465 5.66418 49.144 4.14426 46.5C2.62434 43.856 3.52679 40.4837 6.17082 38.9479C6.63831 38.6792 7.12856 38.4862 7.62741 38.3651V23.6384C7.12279 23.5176 6.62703 23.3234 6.15499 23.0521C3.51096 21.5322 2.60851 18.144 4.12843 15.5C5.64835 12.856 9.0365 11.9535 11.6805 13.4734C12.1536 13.7482 12.571 14.0818 12.9286 14.4595L25.6807 7.0969C25.5337 6.59899 25.4548 6.07162 25.4548 5.52554C25.4548 2.46987 27.9246 0 30.9803 0C34.036 0 36.5059 2.46987 36.5059 5.52554C36.5059 6.07461 36.4261 6.60477 36.2775 7.10509ZM34.9493 9.37292L47.7282 16.7511C47.3332 18.1384 47.4782 19.6767 48.2536 21.0255C49.0314 22.3787 50.2987 23.2757 51.705 23.6253V38.3708C51.6334 38.3884 51.5621 38.4074 51.4911 38.4278L34.8009 9.5203C34.8513 9.47211 34.9008 9.42298 34.9493 9.37292ZM27.1632 9.52364L10.4733 38.4306C10.4011 38.4097 10.3285 38.3902 10.2556 38.3722V23.6253C11.662 23.2757 12.9292 22.3787 13.7071 21.0255C14.484 19.6741 14.628 18.1323 14.23 16.7429L27.0054 9.36678C27.057 9.42011 27.1096 9.47241 27.1632 9.52364ZM32.5242 10.8332L49.2104 39.7337C48.8369 40.0897 48.5078 40.5046 48.2377 40.9745C47.9692 41.4416 47.7763 41.9319 47.6552 42.431H14.3057C14.1847 41.9322 13.9916 41.442 13.7229 40.9745C13.4517 40.5076 13.1233 40.095 12.7517 39.7405L29.4411 10.8346C29.9295 10.9755 30.446 11.0511 30.9803 11.0511C31.5164 11.0511 32.0344 10.9751 32.5242 10.8332ZM35.0666 52.7519L47.7626 45.4217C47.7245 45.302 47.6905 45.1812 47.6606 45.0592H14.2986C14.2809 45.1309 14.2618 45.2022 14.2413 45.273L26.9996 52.6392C28.0041 51.5967 29.4154 50.9489 30.9803 50.9489C32.6009 50.9489 34.0566 51.6436 35.0666 52.7519Z" fill="#E535AB"/>
</svg>
