<svg width="62" height="62" viewBox="0 0 62 62" fill="none" xmlns="http://www.w3.org/2000/svg">
<g id="Type=Flat" clip-path="url(#clip0_335_254)">
<path id="Shape" fill-rule="evenodd" clip-rule="evenodd" d="M0 0H62V62H0V0ZM16.3021 51.8117C17.6755 54.7246 20.3811 57.1383 25.0418 57.1383C30.2027 57.1383 33.74 54.3915 33.74 48.3569V28.464H27.9136V48.2745C27.9136 51.1875 26.7065 51.9364 24.792 51.9364C22.7947 51.9364 21.9621 50.5633 21.0467 48.9403L16.3021 51.8117ZM41.6488 48.4406L36.9049 51.1874C38.6109 54.5586 42.107 57.1388 47.5173 57.1388C53.0524 57.1388 57.1726 54.2674 57.1726 49.0232C57.1726 44.154 54.384 41.9901 49.4314 39.8675L47.9749 39.2432C45.4781 38.1611 44.3959 37.4534 44.3959 35.7054C44.3959 34.2906 45.4781 33.2086 47.1845 33.2086C48.8491 33.2086 49.9309 33.916 50.9298 35.7054L55.4662 32.7923C53.552 29.4212 50.8884 28.1309 47.1844 28.1309C41.9819 28.1309 38.6525 31.4605 38.6525 35.8304C38.6525 40.575 41.441 42.8223 45.6447 44.6116L47.1009 45.2363C49.7645 46.4012 51.3459 47.1088 51.3459 49.1065C51.3459 50.7712 49.8065 51.9782 47.3923 51.9782C44.5208 51.9782 42.8977 50.4801 41.6488 48.4406Z" fill="#F7DF1E"/>
</g>
<defs>
<clipPath id="clip0_335_254">
<rect width="62" height="62" fill="white"/>
</clipPath>
</defs>
</svg>
