<svg width="62" height="62" viewBox="0 0 62 62" fill="none" xmlns="http://www.w3.org/2000/svg">
<g clip-path="url(#clip0_340_641)">
<path d="M61.7465 34.817C63.9161 18.3468 51.9212 3.28911 34.9673 1.18525C18.0133 -0.918613 2.42315 10.7127 0.253542 27.1529C-1.91607 43.5931 10.0788 58.6808 27.0327 60.8148C44.0177 62.9186 59.5459 51.2873 61.7465 34.817Z" fill="#FF6C37"/>
<path d="M42.1891 20.2402L29.1095 32.9235L25.4211 29.347C38.2838 16.8741 39.5546 17.956 42.1891 20.2402Z" fill="white"/>
<path d="M29.1094 33.2241C29.0164 33.2241 28.9544 33.194 28.8924 33.1339L25.1731 29.5574C25.0491 29.4371 25.0491 29.2568 25.1731 29.1366C38.2527 16.4533 39.6165 17.6555 42.375 20.0599C42.437 20.12 42.4679 20.1801 42.4679 20.2703C42.4679 20.3605 42.437 20.4206 42.375 20.4807L29.2953 33.1339C29.2643 33.194 29.1713 33.2241 29.1094 33.2241ZM25.8549 29.347L29.1094 32.5028L41.7241 20.2703C39.4305 18.2867 37.8808 17.6856 25.8549 29.347Z" fill="#FF6C37"/>
<path d="M32.8598 36.5602L29.2954 33.1039L42.3751 20.4206C45.8774 23.8469 40.6394 29.4071 32.8598 36.5602Z" fill="white"/>
<path d="M32.8597 36.8608C32.7667 36.8608 32.7047 36.8307 32.6427 36.7706L29.0783 33.3143C29.0164 33.2541 29.0164 33.194 29.0164 33.1039C29.0164 33.0137 29.0474 32.9536 29.1093 32.8935L42.189 20.2102C42.313 20.09 42.4989 20.09 42.6229 20.2102C43.4288 20.9315 43.8627 21.9534 43.8317 23.0053C43.7697 26.3415 39.8644 30.5792 33.1076 36.7706C33.0146 36.8307 32.9217 36.8608 32.8597 36.8608ZM29.7292 33.1039C31.7129 35.0575 32.5497 35.8389 32.8597 36.1394C38.0667 31.3306 43.1188 26.4016 43.1498 23.0053C43.1808 22.2239 42.8709 21.4425 42.344 20.8414L29.7292 33.1039Z" fill="#FF6C37"/>
<path d="M25.4831 29.4371L28.1176 31.9918C28.1796 32.0519 28.1796 32.112 28.1176 32.1722C28.0866 32.2022 28.0866 32.2022 28.0556 32.2022L22.6006 33.3443C22.3217 33.3744 22.0737 33.194 22.0117 32.9235C21.9807 32.7733 22.0427 32.623 22.1357 32.5328L25.2971 29.4672C25.3591 29.4071 25.4521 29.377 25.4831 29.4371Z" fill="white"/>
<path d="M22.5075 33.6449C22.0426 33.6449 21.7017 33.2842 21.7017 32.8334C21.7017 32.623 21.7946 32.4126 21.9496 32.2623L25.111 29.1967C25.297 29.0464 25.545 29.0464 25.7309 29.1967L28.3655 31.7514C28.5514 31.9017 28.5514 32.1722 28.3655 32.3525C28.3035 32.4126 28.2415 32.4427 28.1485 32.4727L22.6935 33.6148C22.6315 33.6148 22.5695 33.6449 22.5075 33.6449ZM25.39 29.7677L22.3525 32.7132C22.2906 32.7733 22.2596 32.8634 22.3215 32.9536C22.3525 33.0438 22.4455 33.0738 22.5385 33.0438L27.6526 31.9618L25.39 29.7677Z" fill="#FF6C37"/>
<path d="M49.1007 13.2073C47.1171 11.3439 43.9247 11.404 42.003 13.3576C40.0814 15.3112 40.1434 18.3768 42.158 20.2402C43.8007 21.773 46.2802 22.0435 48.2329 20.9014L44.6995 17.4752L49.1007 13.2073Z" fill="white"/>
<path d="M45.6294 21.8933C42.6849 21.8933 40.2983 19.579 40.2983 16.7238C40.2983 13.8685 42.6849 11.5543 45.6294 11.5543C46.9931 11.5543 48.3259 12.0652 49.3177 12.9969C49.3797 13.057 49.4107 13.1171 49.4107 13.2073C49.4107 13.2975 49.3797 13.3576 49.3177 13.4177L45.1335 17.4751L48.4189 20.661C48.5429 20.7812 48.5429 20.9616 48.4189 21.0818C48.3879 21.1118 48.3879 21.1118 48.3569 21.1419C47.551 21.6228 46.5902 21.8933 45.6294 21.8933ZM45.6294 12.1854C43.0259 12.1854 40.9182 14.2292 40.9492 16.7538C40.9492 19.2785 43.0568 21.3222 45.6604 21.2922C46.3732 21.2922 47.0861 21.1419 47.737 20.8113L44.4826 17.6855C44.4206 17.6254 44.3896 17.5653 44.3896 17.4751C44.3896 17.385 44.4206 17.3249 44.4826 17.2648L48.6358 13.2374C47.799 12.5461 46.7452 12.1854 45.6294 12.1854Z" fill="#FF6C37"/>
<path d="M49.1937 13.2975L49.1317 13.2374L44.6995 17.4752L48.2018 20.8714C48.5428 20.661 48.8837 20.4206 49.1627 20.1501C51.1463 18.2566 51.1463 15.191 49.1937 13.2975Z" fill="white"/>
<path d="M48.233 21.202C48.14 21.202 48.078 21.1719 48.016 21.1118L44.4826 17.6855C44.4206 17.6254 44.3896 17.5653 44.3896 17.4752C44.3896 17.385 44.4206 17.3249 44.4826 17.2648L48.8838 12.9969C49.0078 12.8767 49.1938 12.8767 49.3178 12.9969L49.4107 13.057C51.4874 15.0707 51.4874 18.3167 49.4417 20.3605C49.1318 20.661 48.7909 20.9315 48.4189 21.1419C48.3259 21.1719 48.264 21.202 48.233 21.202ZM45.1335 17.4752L48.264 20.5107C48.5119 20.3605 48.7599 20.1501 48.9458 19.9697C50.7125 18.2566 50.8055 15.4615 49.1008 13.6581L45.1335 17.4752Z" fill="#FF6C37"/>
<path d="M42.7159 20.7812C41.972 20.0599 40.7632 20.0599 40.0194 20.7812L28.3345 32.112L30.2871 34.0055L42.6539 23.4862C43.4598 22.825 43.5217 21.6528 42.8399 20.8714C42.7779 20.8413 42.7469 20.8113 42.7159 20.7812Z" fill="white"/>
<path d="M30.2562 34.3061C30.1633 34.3061 30.1013 34.276 30.0393 34.2159L28.0866 32.3224C27.9627 32.2022 27.9627 32.0219 28.0866 31.9017L39.7715 20.5709C40.6394 19.7293 42.0341 19.7293 42.902 20.5709C43.7698 21.4124 43.7698 22.7649 42.902 23.6064C42.871 23.6365 42.84 23.6665 42.809 23.6966L30.4422 34.2159C30.4112 34.276 30.3492 34.3061 30.2562 34.3061ZM28.7685 32.1121L30.2872 33.5848L42.4371 23.2458C43.1189 22.7048 43.1809 21.713 42.623 21.0517C42.0651 20.3905 41.0423 20.3304 40.3604 20.8714C40.3294 20.9015 40.2984 20.9315 40.2364 20.9616L28.7685 32.1121Z" fill="#FF6C37"/>
<path d="M19.3771 45.0057C19.2532 45.0658 19.1912 45.1861 19.2222 45.3063L19.7491 47.4702C19.8731 47.7708 19.6871 48.1315 19.3461 48.2216C19.0982 48.3118 18.8192 48.2216 18.6643 48.0413L15.2549 44.7653L26.3819 33.9755L30.2252 34.0356L32.8287 36.5602C32.2088 37.0711 28.4585 40.5876 19.3771 45.0057Z" fill="white"/>
<path d="M19.1291 48.5222C18.8811 48.5222 18.6332 48.432 18.4782 48.2517L15.0998 44.9757C15.0378 44.9156 15.0068 44.8554 15.0068 44.7653C15.0068 44.6751 15.0378 44.615 15.0998 44.5549L26.2268 33.7651C26.2888 33.705 26.3818 33.6749 26.4438 33.6749L30.2871 33.735C30.3801 33.735 30.4421 33.7651 30.504 33.8252L33.1076 36.3498C33.1696 36.4099 33.2006 36.5001 33.2006 36.5903C33.2006 36.6804 33.1696 36.7405 33.0766 36.8007L32.8596 36.981C29.5742 39.7761 25.111 42.5712 19.563 45.2462L20.0899 47.3801C20.1829 47.7708 19.9969 48.1916 19.625 48.402C19.439 48.4921 19.2841 48.5222 19.1291 48.5222ZM15.7197 44.7653L18.9121 47.8309C19.0051 47.9812 19.1911 48.0413 19.3461 47.9511C19.501 47.861 19.563 47.6806 19.47 47.5304L18.9431 45.3664C18.8811 45.0959 19.0051 44.8554 19.2531 44.7352C24.7391 42.0603 29.1713 39.2952 32.4257 36.5602L30.1321 34.3361L26.5678 34.276L15.7197 44.7653Z" fill="#FF6C37"/>
<path d="M12.6203 47.35L15.2858 44.7653L19.2531 48.6124L12.9302 48.1916C12.6513 48.1615 12.4653 47.9211 12.4963 47.6506C12.4963 47.5304 12.5273 47.4101 12.6203 47.35Z" fill="white"/>
<path d="M19.2532 48.8828L12.8993 48.4621C12.4344 48.432 12.1245 48.0413 12.1555 47.5905C12.1864 47.4101 12.2484 47.2298 12.4034 47.1096L15.0689 44.5248C15.1929 44.4046 15.3789 44.4046 15.5028 44.5248L19.4701 48.3719C19.5631 48.4621 19.5941 48.5823 19.5321 48.7025C19.4701 48.8227 19.3772 48.8828 19.2532 48.8828ZM15.2859 45.1861L12.8373 47.5604C12.7443 47.6205 12.7443 47.7708 12.8373 47.8309C12.8683 47.861 12.8993 47.891 12.9613 47.891L18.4473 48.2517L15.2859 45.1861Z" fill="#FF6C37"/>
<path d="M25.297 35.358C25.111 35.358 24.9871 35.2077 24.9871 35.0575C24.9871 34.9673 25.0181 34.9072 25.08 34.8471L28.0865 31.9317C28.2105 31.8115 28.3964 31.8115 28.5204 31.9317L30.4731 33.8252C30.5661 33.9154 30.5971 34.0055 30.5661 34.1257C30.5351 34.2159 30.4421 34.3061 30.3181 34.3361L25.359 35.358C25.328 35.358 25.297 35.358 25.297 35.358ZM28.3035 32.5629L26.2578 34.5465L29.6052 33.8553L28.3035 32.5629Z" fill="#FF6C37"/>
<path d="M30.2253 34.0356L26.8159 34.7569C26.5679 34.817 26.32 34.6667 26.258 34.4263C26.227 34.276 26.258 34.1257 26.382 34.0055L28.2726 32.1721L30.2253 34.0356Z" fill="white"/>
<path d="M26.7539 35.0575C26.3199 35.0575 25.979 34.7269 25.979 34.3061C25.979 34.0957 26.072 33.9154 26.196 33.7651L28.0866 31.9317C28.2106 31.8115 28.3966 31.8115 28.5205 31.9317L30.4732 33.8252C30.5662 33.9154 30.5972 34.0055 30.5662 34.1257C30.5352 34.2159 30.4422 34.3061 30.3182 34.3361L26.9088 35.0575C26.8468 35.0575 26.7849 35.0575 26.7539 35.0575ZM28.3036 32.5629L26.6299 34.1859C26.5679 34.246 26.5679 34.3061 26.5989 34.3662C26.6299 34.4263 26.6919 34.4564 26.7849 34.4564L29.6363 33.8553L28.3036 32.5629Z" fill="#FF6C37"/>
<path d="M49.2249 16.1828C49.1629 16.0025 48.9459 15.9123 48.76 15.9724C48.574 16.0325 48.481 16.2429 48.543 16.4232C48.543 16.4533 48.574 16.4833 48.574 16.5134C48.76 16.8741 48.698 17.3249 48.45 17.6555C48.326 17.8058 48.357 18.0162 48.481 18.1364C48.636 18.2566 48.8529 18.2265 48.9769 18.0763C49.4418 17.5052 49.5348 16.7839 49.2249 16.1828Z" fill="#FF6C37"/>
</g>
<defs>
<clipPath id="clip0_340_641">
<rect width="62" height="62" fill="white"/>
</clipPath>
</defs>
</svg>
