<svg width="62" height="62" viewBox="0 0 62 62" fill="none" xmlns="http://www.w3.org/2000/svg">
<path d="M50.9764 21.2698C50.3333 21.0484 49.6668 20.8389 48.9806 20.6409C49.0934 20.1805 49.1969 19.7262 49.2889 19.2796C50.7998 11.9459 49.8119 6.03779 46.4388 4.0926C43.2044 2.22742 37.9148 4.17217 32.5725 8.82138C32.0588 9.26845 31.5436 9.74178 31.0287 10.2378C30.6856 9.90964 30.343 9.59246 30.0014 9.28909C24.4025 4.31785 18.7905 2.2229 15.4207 4.17372C12.1894 6.04431 11.2325 11.5985 12.5924 18.5487C12.7237 19.22 12.8773 19.9055 13.0509 20.6026C12.2566 20.828 11.4898 21.0684 10.7562 21.3241C4.1921 23.6126 0 27.1993 0 30.9196C0 34.762 4.50023 38.6159 11.3372 40.9528C11.8767 41.1372 12.4366 41.3116 13.0136 41.4771C12.8263 42.231 12.6634 42.9697 12.5266 43.6902C11.2299 50.5198 12.2426 55.9428 15.4653 57.8015C18.7941 59.7211 24.3807 57.748 29.8206 52.9929C30.2506 52.617 30.6821 52.2184 31.1143 51.8005C31.6746 52.3401 32.234 52.8507 32.7905 53.3297C38.0597 57.864 43.2639 59.695 46.4836 57.831C49.8091 55.9059 50.8898 50.0804 49.4867 42.9927C49.3795 42.4514 49.2548 41.8983 49.1148 41.3355C49.5071 41.2195 49.8923 41.0998 50.2678 40.9753C57.3755 38.6203 62 34.8133 62 30.9196C62 27.1858 57.6727 23.575 50.9764 21.2698ZM49.4348 38.4612C49.0958 38.5734 48.748 38.6819 48.3935 38.7871C47.6088 36.303 46.5498 33.6616 45.2539 30.9325C46.4906 28.2684 47.5086 25.6608 48.2713 23.1928C48.9056 23.3763 49.5211 23.5699 50.1143 23.7742C55.8517 25.7493 59.3514 28.6695 59.3514 30.9196C59.3514 33.3164 55.5718 36.4277 49.4348 38.4612ZM46.8884 43.5071C47.5088 46.6411 47.5975 49.4747 47.1865 51.6899C46.8172 53.6803 46.0746 55.0074 45.1564 55.5388C43.2025 56.6698 39.0241 55.1997 34.5178 51.3219C34.0012 50.8774 33.4809 50.4027 32.9589 49.9004C34.7059 47.9897 36.4519 45.7685 38.1559 43.3017C41.1532 43.0357 43.9849 42.6009 46.5528 42.0073C46.6793 42.5175 46.7916 43.0178 46.8884 43.5071ZM21.1372 55.3434C19.2282 56.0176 17.7078 56.0369 16.7887 55.507C14.833 54.379 14.02 50.0249 15.129 44.1842C15.2561 43.5153 15.4072 42.8282 15.5815 42.1259C18.1213 42.6875 20.9323 43.0917 23.9367 43.3352C25.6522 45.7491 27.4486 47.9679 29.259 49.9106C28.8634 50.2925 28.4695 50.656 28.0777 50.9986C25.6722 53.1012 23.2616 54.5931 21.1372 55.3434ZM12.1938 38.4465C9.17063 37.4132 6.67397 36.0703 4.96263 34.6048C3.42489 33.2879 2.64851 31.9805 2.64851 30.9196C2.64851 28.662 6.01435 25.7824 11.628 23.8252C12.3091 23.5877 13.0222 23.3639 13.7621 23.1536C14.5379 25.6773 15.5557 28.3159 16.7839 30.984C15.5398 33.6918 14.5076 36.3724 13.7242 38.9257C13.1966 38.7741 12.6856 38.6145 12.1938 38.4465ZM15.1917 18.04C14.0265 12.0853 14.8004 7.5932 16.7477 6.46599C18.8219 5.26517 23.4085 6.97728 28.2427 11.2697C28.5517 11.5441 28.8619 11.8312 29.173 12.1283C27.3716 14.0626 25.5916 16.2647 23.8913 18.6643C20.9754 18.9346 18.1842 19.3687 15.6179 19.9501C15.4566 19.3011 15.3137 18.6634 15.1917 18.04ZM41.9357 24.6438C41.3222 23.5841 40.6924 22.5495 40.0503 21.5431C42.0285 21.7932 43.9238 22.1252 45.7037 22.5314C45.1693 24.244 44.5033 26.0345 43.7193 27.8701C43.1569 26.8024 42.5621 25.7259 41.9357 24.6438ZM31.0296 14.0212C32.2513 15.3447 33.4747 16.8224 34.678 18.4257C33.4654 18.3684 32.2378 18.3386 31 18.3386C29.7739 18.3386 28.5553 18.3678 27.3502 18.4241C28.5548 16.8357 29.7888 15.3599 31.0296 14.0212ZM20.0536 24.6621C19.4408 25.7248 18.857 26.7955 18.3034 27.8682C17.5321 26.039 16.8723 24.2402 16.3333 22.5034C18.1022 22.1075 19.9886 21.7838 21.9542 21.5385C21.3031 22.5541 20.6681 23.5964 20.0536 24.6619V24.6621ZM22.0108 40.4896C19.98 40.263 18.0652 39.956 16.2967 39.5711C16.8443 37.8032 17.5187 35.9661 18.3064 34.0975C18.8614 35.1694 19.4475 36.2406 20.0641 37.3055H20.0642C20.6922 38.3905 21.3429 39.4532 22.0108 40.4896ZM31.1029 48.0047C29.8475 46.6503 28.5954 45.1521 27.3725 43.5405C28.5596 43.5871 29.7699 43.6109 31 43.6109C32.2637 43.6109 33.513 43.5824 34.7426 43.5277C33.5353 45.1683 32.3163 46.6688 31.1029 48.0047ZM43.7446 34.0023C44.5733 35.8911 45.2719 37.7186 45.8265 39.4563C44.0289 39.8664 42.088 40.1967 40.0431 40.4422C40.6867 39.4222 41.322 38.3698 41.9463 37.2873C42.5779 36.1921 43.1776 35.0953 43.7446 34.0023ZM39.652 35.9641C38.6829 37.6445 37.6879 39.2487 36.6778 40.763C34.838 40.8945 32.9372 40.9623 31 40.9623C29.0706 40.9623 27.1938 40.9024 25.3866 40.785C24.3357 39.2509 23.3191 37.642 22.3561 35.9786H22.3563C21.3959 34.3197 20.5119 32.6467 19.7109 30.9832C20.5117 29.3157 21.3933 27.6409 22.3483 25.985L22.3481 25.9853C23.3055 24.325 24.3132 22.7239 25.3544 21.1994C27.1982 21.06 29.089 20.9873 30.9999 20.9873H31C32.9195 20.9873 34.8127 21.0605 36.656 21.2011C37.6813 22.7145 38.6821 24.3104 39.6433 25.971C40.6155 27.6502 41.5085 29.3139 42.3161 30.9455C41.5109 32.6052 40.6199 34.2857 39.652 35.9641ZM45.1158 6.38719C47.192 7.58448 47.9994 12.4131 46.6949 18.745C46.6117 19.149 46.518 19.5605 46.4163 19.9776C43.844 19.3841 41.0508 18.9424 38.1264 18.6681C36.4228 16.242 34.6574 14.0365 32.8854 12.1271C33.3618 11.6688 33.8376 11.2317 34.3113 10.8193C38.8886 6.83591 43.1667 5.26318 45.1158 6.38719ZM31 25.3832C34.0576 25.3832 36.5364 27.8619 36.5364 30.9196C36.5364 33.9772 34.0576 36.456 31 36.456C27.9424 36.456 25.4636 33.9772 25.4636 30.9196C25.4636 27.8619 27.9424 25.3832 31 25.3832Z" fill="#00D8FF"/>
</svg>
