<svg width="62" height="62" viewBox="0 0 62 62" fill="none" xmlns="http://www.w3.org/2000/svg">
<path d="M31 12.3516C22.7333 12.3516 17.5667 16.4849 15.5 24.7516C18.6 20.6182 22.2167 19.0682 26.35 20.1016C28.7083 20.6911 30.3939 22.402 32.2596 24.2959C35.299 27.3809 38.8167 30.9516 46.5 30.9516C54.7667 30.9516 59.9333 26.8182 62 18.5516C58.9 22.6849 55.2833 24.2349 51.15 23.2016C48.7917 22.612 47.1061 20.9011 45.2404 19.0073C42.201 15.9222 38.6833 12.3516 31 12.3516ZM15.5 30.9516C7.23333 30.9516 2.06667 35.0849 0 43.3516C3.1 39.2182 6.71667 37.6682 10.85 38.7016C13.2083 39.2911 14.8939 41.002 16.7596 42.8959C19.799 45.9809 23.3167 49.5516 31 49.5516C39.2667 49.5516 44.4333 45.4182 46.5 37.1516C43.4 41.2849 39.7833 42.8349 35.65 41.8016C33.2917 41.212 31.6061 39.5011 29.7404 37.6073C26.701 34.5222 23.1833 30.9516 15.5 30.9516Z" fill="url(#paint0_linear_335_247)"/>
<path d="M31 12.3516C22.7333 12.3516 17.5667 16.4849 15.5 24.7516C18.6 20.6182 22.2167 19.0682 26.35 20.1016C28.7083 20.6911 30.3939 22.402 32.2596 24.2959C35.299 27.3809 38.8167 30.9516 46.5 30.9516C54.7667 30.9516 59.9333 26.8182 62 18.5516C58.9 22.6849 55.2833 24.2349 51.15 23.2016C48.7917 22.612 47.1061 20.9011 45.2404 19.0073C42.201 15.9222 38.6833 12.3516 31 12.3516ZM15.5 30.9516C7.23333 30.9516 2.06667 35.0849 0 43.3516C3.1 39.2182 6.71667 37.6682 10.85 38.7016C13.2083 39.2911 14.8939 41.002 16.7596 42.8959C19.799 45.9809 23.3167 49.5516 31 49.5516C39.2667 49.5516 44.4333 45.4182 46.5 37.1516C43.4 41.2849 39.7833 42.8349 35.65 41.8016C33.2917 41.212 31.6061 39.5011 29.7404 37.6073C26.701 34.5222 23.1833 30.9516 15.5 30.9516Z" fill="url(#paint1_linear_335_247)"/>
<defs>
<linearGradient id="paint0_linear_335_247" x1="-1.72222" y1="24.2556" x2="51.8249" y2="55.1296" gradientUnits="userSpaceOnUse">
<stop stop-color="#2298BD"/>
<stop offset="1" stop-color="#0ED7B5"/>
</linearGradient>
<linearGradient id="paint1_linear_335_247" x1="-1.72222" y1="24.2556" x2="51.8249" y2="55.1296" gradientUnits="userSpaceOnUse">
<stop stop-color="#2298BD"/>
<stop offset="1" stop-color="#0ED7B5"/>
</linearGradient>
</defs>
</svg>
