<svg width="62" height="62" viewBox="0 0 62 62" fill="none" xmlns="http://www.w3.org/2000/svg">
<g clip-path="url(#clip0_334_869)">
<path d="M4.84375 0H57.1562C59.8314 0 62 2.16862 62 4.84375V57.1562C62 59.8314 59.8314 62 57.1562 62H4.84375C2.16862 62 0 59.8314 0 57.1562V4.84375C0 2.16862 2.16862 0 4.84375 0Z" fill="#3178C6"/>
<path d="M36.4536 48.5525V55.2418C37.5415 55.7993 38.8282 56.2173 40.3136 56.496C41.7989 56.7748 43.3644 56.9141 45.0103 56.9141C46.6141 56.9141 48.1379 56.7608 49.5814 56.4541C51.0248 56.1475 52.2907 55.6423 53.3784 54.9388C54.4663 54.235 55.3275 53.3152 55.9623 52.1793C56.5968 51.0437 56.9141 49.6397 56.9141 47.9674C56.9141 46.755 56.7327 45.6923 56.3701 44.7795C56.0076 43.8667 55.4844 43.0549 54.801 42.3443C54.1178 41.6335 53.2982 40.996 52.343 40.4315C51.3876 39.8672 50.3101 39.3342 49.1105 38.8326C48.2319 38.47 47.444 38.1184 46.7465 37.7769C46.0493 37.4354 45.4564 37.0871 44.9684 36.7316C44.4802 36.3763 44.1036 36 43.8386 35.6028C43.5736 35.2056 43.4412 34.7563 43.4412 34.2545C43.4412 33.7946 43.5596 33.3802 43.7967 33.0109C44.0338 32.6415 44.3688 32.3245 44.8011 32.0598C45.2334 31.7949 45.7633 31.5895 46.391 31.443C47.0185 31.2967 47.716 31.2235 48.483 31.2235C49.041 31.2235 49.6303 31.2654 50.2508 31.349C50.8715 31.4325 51.4956 31.5614 52.1234 31.7358C52.7509 31.9099 53.3609 32.1293 53.9538 32.3943C54.5464 32.659 55.094 32.9656 55.5961 33.3139V27.0637C54.5779 26.6736 53.4656 26.3844 52.2592 26.1962C51.0529 26.008 49.6685 25.9141 48.1064 25.9141C46.5165 25.9141 45.0103 26.0848 43.5877 26.4263C42.1651 26.7675 40.9132 27.3006 39.8323 28.0252C38.7515 28.7501 37.8973 29.6733 37.2695 30.7951C36.642 31.9169 36.3281 33.2582 36.3281 34.8191C36.3281 36.8118 36.9033 38.5119 38.0542 39.9195C39.2048 41.3269 40.9515 42.5184 43.2946 43.494C44.2152 43.8703 45.073 44.2394 45.8679 44.602C46.663 44.9643 47.3498 45.3404 47.9287 45.7306C48.5075 46.1207 48.9643 46.5458 49.299 47.0057C49.6337 47.4656 49.801 47.9882 49.801 48.5736C49.801 49.0054 49.6964 49.4062 49.4871 49.7756C49.2781 50.1447 48.9606 50.4653 48.5353 50.7371C48.1101 51.0088 47.5799 51.2212 46.9454 51.3745C46.3109 51.5278 45.5681 51.6046 44.7173 51.6046C43.2668 51.6046 41.8304 51.3503 40.4078 50.8415C38.9849 50.3329 37.6669 49.57 36.4536 48.5525ZM25.3042 31.9063H33.9062V26.3984H9.92969V31.9063H18.4897V56.4297H25.3042V31.9063Z" fill="white"/>
</g>
<defs>
<clipPath id="clip0_334_869">
<rect width="62" height="62" fill="white"/>
</clipPath>
</defs>
</svg>
