<svg width="51" height="50" viewBox="0 0 51 50" fill="none" xmlns="http://www.w3.org/2000/svg">
<path d="M0.294861 7C0.294861 3.13401 3.42887 0 7.29486 0H43.2949C47.1609 0 50.2949 3.13401 50.2949 7V43C50.2949 46.866 47.1609 50 43.2949 50H7.29486C3.42887 50 0.294861 46.866 0.294861 43V7Z" fill="white"/>
<path d="M18.2949 13.5C18.2949 15.9853 16.2801 18 13.7949 18C11.3096 18 9.29486 15.9853 9.29486 13.5C9.29486 11.0147 11.3096 9 13.7949 9C16.2801 9 18.2949 11.0147 18.2949 13.5Z" fill="black"/>
<path d="M10.2949 21C10.2949 20.4477 10.7426 20 11.2949 20H16.2949C16.8471 20 17.2949 20.4477 17.2949 21V40C17.2949 40.5523 16.8471 41 16.2949 41H11.2949C10.7426 41 10.2949 40.5523 10.2949 40V21Z" fill="black"/>
<path d="M21.2949 20L25.7949 20C26.3471 20 26.7949 20.4477 26.7949 21V22C28.7949 19.5 32.4615 19.3333 34.2949 19.5C40.0102 20.0195 40.9615 25.8333 40.7949 29L40.7948 40C40.7948 40.5523 40.3471 41 39.7949 41L35.2949 41C34.7426 41 34.2949 40.5523 34.2949 40V29C34.1282 27.6667 33.1949 25 30.7949 25C28.3949 25 26.9615 28 26.7949 29V40C26.7949 40.5523 26.3471 41 25.7949 41L21.2949 41C20.7426 41 20.2949 40.5523 20.2949 40V21C20.2949 20.4477 20.7426 20 21.2949 20Z" fill="black"/>
</svg>
